<?xml version="1.0" standalone="no"?>
<!DOCTYPE svg PUBLIC "-//W3C//DTD SVG 20010904//EN"
 "http://www.w3.org/TR/2001/REC-SVG-20010904/DTD/svg10.dtd">
<svg version="1.0" xmlns="http://www.w3.org/2000/svg"
 width="420.000000pt" height="420.000000pt" viewBox="0 0 420.000000 420.000000"
 preserveAspectRatio="xMidYMid meet">
<metadata>
Created by potrace 1.14, written by Peter Selinger 2001-2017
</metadata>
<g transform="translate(0.000000,420.000000) scale(0.100000,-0.100000)"
fill="#000000" stroke="none">
<path d="M1815 4182 c-2 -2 -23 -6 -47 -8 -130 -15 -393 -95 -563 -174 -332
-152 -661 -440 -871 -762 -44 -67 -153 -273 -181 -343 -54 -133 -115 -365
-139 -525 -10 -70 -13 -449 -4 -505 4 -27 11 -72 14 -100 9 -70 42 -205 72
-300 120 -377 346 -718 638 -963 44 -38 86 -72 92 -75 8 -5 11 71 11 271 l0
277 -42 50 c-189 223 -336 563 -373 865 -7 59 -7 361 1 420 70 546 413 1037
902 1288 83 43 171 82 184 82 4 0 8 -804 9 -1787 0 -984 1 -1795 1 -1804 1 -9
11 -19 24 -22 154 -35 230 -49 344 -62 l22 -2 0 2093 -1 2094 -45 -2 c-24 -2
-46 -4 -48 -6z"/>
<path d="M2295 2098 c0 -2087 0 -2093 20 -2092 78 5 186 23 284 48 l86 21 2
910 c1 501 2 920 3 933 l0 22 550 0 550 0 -4 -22 c-3 -13 -10 -57 -17 -98 -41
-272 -180 -577 -361 -797 l-43 -52 1 -273 c1 -150 2 -274 3 -276 0 -2 34 24
74 56 361 297 624 731 717 1182 11 57 13 70 30 180 8 59 6 498 -3 545 -2 11
-7 40 -12 65 -4 25 -9 54 -12 65 -2 11 -6 31 -9 45 -36 182 -151 465 -264 645
-116 184 -255 347 -426 495 -45 39 -86 70 -93 70 -4 0 -6 -123 -6 -273 l0
-272 66 -85 c109 -141 186 -276 249 -436 33 -82 78 -244 86 -309 3 -22 7 -45
9 -52 3 -9 -127 -11 -541 -11 -398 0 -544 3 -544 12 0 6 -1 408 -1 892 l0 882
-67 17 c-91 23 -197 43 -268 50 l-59 7 0 -2094z"/>
</g>
</svg>
