<svg width="151" height="49" viewBox="0 0 151 49" fill="none" xmlns="http://www.w3.org/2000/svg">
<path d="M60.4439 21.1374V28.1893H58.1377V15.5833C58.1377 14.6041 58.3211 13.6828 58.6878 12.8194C59.0545 11.956 59.5529 11.2032 60.1805 10.5635C60.808 9.92388 61.5466 9.41585 62.3937 9.04206C63.2408 8.66828 64.1524 8.48138 65.1311 8.48138C66.0918 8.48138 66.9957 8.66828 67.8428 9.04206C68.6899 9.41585 69.4285 9.92388 70.056 10.5635C70.6836 11.2032 71.182 11.956 71.5487 12.8194C71.9154 13.6828 72.0988 14.6041 72.0988 15.5833V28.1893H69.8184V21.1374H60.4439ZM69.8236 15.5833C69.8236 14.9252 69.7022 14.3066 69.4569 13.7275C69.2115 13.1484 68.8758 12.6404 68.4471 12.2061C68.0184 11.7691 67.52 11.4269 66.9544 11.1768C66.3863 10.9268 65.7794 10.8031 65.1337 10.8031C64.4881 10.8031 63.8812 10.9268 63.3131 11.1768C62.7449 11.4269 62.2465 11.7691 61.8204 12.2061C61.3917 12.643 61.0559 13.1511 60.8106 13.7275C60.5653 14.3066 60.4439 14.9252 60.4439 15.5833V18.8157H69.8236V15.5833Z" fill="#3E5DAA"/>
<path d="M86.2533 13.7274C86.008 13.1483 85.6722 12.6403 85.2435 12.2059C84.8148 11.769 84.3164 11.4268 83.7508 11.1767C83.1827 10.9267 82.5758 10.8029 81.9302 10.8029C81.2845 10.8029 80.6776 10.9267 80.1095 11.1767C79.5413 11.4268 79.0429 11.769 78.6168 12.2059C78.1881 12.6429 77.8524 13.1509 77.607 13.7274C77.3617 14.3065 77.2403 14.9251 77.2403 15.5832V28.1892H74.96V15.5832C74.96 14.604 75.1433 13.6827 75.51 12.8193C75.8767 11.9559 76.3752 11.203 77.0027 10.5634C77.6303 9.92376 78.3689 9.41572 79.2159 9.04194C80.063 8.66816 80.9669 8.48126 81.9276 8.48126C82.8883 8.48126 83.7922 8.66816 84.6392 9.04194C85.4863 9.41572 86.2249 9.92376 86.8524 10.5634C87.48 11.2057 87.9784 11.9559 88.3451 12.8193C88.7119 13.6827 88.8952 14.604 88.8952 15.5832V28.1892H86.6149V15.5832C86.62 14.9251 86.4986 14.3039 86.2533 13.7274Z" fill="#3E5DAA"/>
<path d="M97.7555 11.1214V28.1865H95.4493V11.1214H90.1035V8.79712H103.101V11.1214H97.7555Z" fill="#3E5DAA"/>
<path d="M104.989 8.69183H107.27V17.2652H114.581V8.69183H116.861V28.1892H114.581V19.6158H107.27V28.1892H104.989V8.69183Z" fill="#67C347"/>
<path d="M119.269 8.69183H121.549V28.1892H119.269V8.69183Z" fill="#67C347"/>
<path d="M123.669 8.71814H125.949V25.8649H136.194V28.1892H123.669V8.71814Z" fill="#67C347"/>
<path d="M138.475 8.71814H140.755V25.8649H151V28.1892H138.475V8.71814Z" fill="#67C347"/>
<path d="M58.5947 39.6187L58.8891 39.0528C59.3979 39.5398 60.2992 39.8977 61.2341 39.8977C62.5641 39.8977 63.1425 39.3502 63.1425 38.6632C63.1425 36.7522 58.7678 37.9262 58.7678 35.3492C58.7678 34.3252 59.5812 33.4381 61.3864 33.4381C62.1896 33.4381 63.0212 33.6671 63.5893 34.0541L63.3362 34.6411C62.7268 34.2541 62.0166 34.0646 61.3864 34.0646C60.0874 34.0646 59.5089 34.6305 59.5089 35.3281C59.5089 37.2391 63.8837 36.0836 63.8837 38.6211C63.8837 39.645 63.0522 40.5216 61.2341 40.5216C60.1701 40.5242 59.1241 40.1557 58.5947 39.6187Z" fill="black"/>
<path d="M76.6359 39.8267V40.4637H71.6104V33.4987H76.4836V34.1357H72.3619V36.6127H76.0368V37.2392H72.3619V39.8267H76.6359Z" fill="black"/>
<path d="M89.3496 40.4638L87.7252 38.2237C87.5419 38.2447 87.3611 38.2526 87.1571 38.2526H85.2486V40.4611H84.4971V33.4961H87.1571C88.9648 33.4961 90.0598 34.3911 90.0598 35.8836C90.0598 36.9786 89.471 37.7446 88.4354 38.0736L90.1709 40.4611H89.3496V40.4638ZM89.3083 35.8862C89.3083 34.7728 88.5568 34.1357 87.1364 34.1357H85.2486V37.6288H87.1364C88.5568 37.6288 89.3083 36.9812 89.3083 35.8862Z" fill="black"/>
<path d="M103.838 33.4987L100.69 40.4637H99.9489L96.8008 33.4987H97.6143L100.336 39.5477L103.076 33.4987H103.838Z" fill="black"/>
<path d="M110.955 33.4987H111.707V40.4637H110.955V33.4987Z" fill="black"/>
<path d="M119.485 36.9812C119.485 34.9412 121.068 33.4382 123.212 33.4382C124.248 33.4382 125.182 33.7751 125.81 34.4542L125.332 34.9228C124.754 34.3463 124.043 34.0962 123.23 34.0962C121.515 34.0962 120.224 35.3308 120.224 36.9812C120.224 38.6317 121.513 39.8662 123.23 39.8662C124.043 39.8662 124.754 39.6161 125.332 39.0291L125.81 39.4977C125.18 40.1742 124.248 40.5217 123.202 40.5217C121.068 40.5243 119.485 39.0212 119.485 36.9812Z" fill="black"/>
<path d="M138.531 39.8267V40.4637H133.506V33.4987H138.379V34.1357H134.257V36.6127H137.932V37.2392H134.257V39.8267H138.531Z" fill="black"/>
<path d="M145.711 39.6188L146.005 39.0528C146.514 39.5398 147.415 39.8978 148.35 39.8978C149.68 39.8978 150.259 39.3503 150.259 38.6633C150.259 36.7522 145.884 37.9262 145.884 35.3492C145.884 34.3253 146.697 33.4382 148.503 33.4382C149.306 33.4382 150.137 33.6672 150.706 34.0541L150.452 34.6411C149.843 34.2542 149.133 34.0647 148.503 34.0647C147.204 34.0647 146.625 34.6306 146.625 35.3282C146.625 37.2392 151 36.0836 151 38.6211C151 39.6451 150.168 40.5217 148.35 40.5217C147.284 40.5243 146.238 40.1558 145.711 39.6188Z" fill="black"/>
<path d="M0 24.5013C0 32.5245 3.77306 39.6554 9.61213 44.1487V37.6733C6.55443 34.175 4.69502 29.5579 4.69502 24.5013C4.69502 15.9569 10.0021 8.67601 17.4346 5.89369V43.1089V48.1392C18.873 48.5683 20.3657 48.8579 21.9049 49V44.1882V4.81182V0C20.3683 0.142143 18.873 0.431696 17.4346 0.860759C7.36792 3.81945 0 13.2878 0 24.5013Z" fill="#3E5DAA"/>
<path d="M48.1301 21.7664C47.3786 14.8672 43.8302 8.82606 38.6678 4.85394V11.3373C41.1702 14.1933 42.8644 17.7943 43.4015 21.7664H30.8453V5.89106V0.860759C29.4069 0.431696 27.9142 0.142143 26.375 0V4.81182V21.7664V26.3229V44.1882V49C27.9116 48.8579 29.4069 48.5683 30.8453 48.1392V43.1089V26.3229H43.5048C43.1149 30.6609 41.3536 34.5935 38.6678 37.668V44.1434C44.0601 39.9976 47.6885 33.6011 48.2128 26.3229C48.2567 25.7227 48.2799 25.1146 48.2799 24.5013C48.2799 23.5748 48.2283 22.664 48.1301 21.7664Z" fill="#67C347"/>
</svg>
